# xmcd CD database file
#
# Track frame offsets:
#	150
#	10559
#	21165
#	33447
#	43603
#	53443
#	65462
#	78416
#	89274
#	98073
#	108631
#	121236
#	132490
#	143236
#	152520
#	164492
#	176394
#	190169
#	201286
#	212914
#	223891
#	236630
#
# Disc length: 3309 seconds
#
# Revision: 1
# Processed by: cddbd v1.5.1PL0 Copyright (c) Steve Scherf et al.
# Submitted via: CDex 1.51
#
DISCID=2f0ceb16
DTITLE=Georege Jones - The Definitive Collection -1955-1962
DYEAR=2004
DGENRE=Country
TTITLE0=Why Baby Why
TTITLE1=I'm Ragged But I'm Right
TTITLE2=Just One More
TTITLE3=Don't Stop The Music
TTITLE4=Too Much Water
TTITLE5=Cup Of Lonliness
TTITLE6=Color Of The Blues
TTITLE7=Will The Circle Be Unbroken
TTITLE8=If I Don't Love You (Girls Ain't Groceries)
TTITLE9=Treasure Of Love
TTITLE10=White Lightning
TTITLE11=Mr. Fool
TTITLE12=Who Shot Sam
TTITLE13=Big Harlon Taylor
TTITLE14=Money To Burn
TTITLE15=You're Still On My Mind
TTITLE16=Family Bible
TTITLE17=Life To Go
TTITLE18=The Window Up Above
TTITLE19=Tender Years
TTITLE20=Achin' Breakin' Heart
TTITLE21=She Thinks I still Care
EXTD=YEAR: 2004
EXTT0=
EXTT1=
EXTT2=
EXTT3=
EXTT4=
EXTT5=
EXTT6=
EXTT7=
EXTT8=
EXTT9=
EXTT10=
EXTT11=
EXTT12=
EXTT13=
EXTT14=
EXTT15=
EXTT16=
EXTT17=
EXTT18=
EXTT19=
EXTT20=
EXTT21=
PLAYORDER=
